{"title":"Underdog Kids 2015 720p WEB-DL XviD AC3-RARBG","uid":12063467,"size":2969583267,"categoryP":"video","categoryS":"hd___movies","magnet":"?xt=urn:btih:f35fafb55a9f37b98b325c9332867fb8e5a3c153&amp;dn=Underdog+Kids+2015+720p+WEB-DL+XviD+AC3-RARBG&amp;tr=udp%3A%2F%2Ftracker.openbittorrent.com%3A80&amp;tr=udp%3A%2F%2Fopen.demonii.com%3A1337&amp;tr=udp%3A%2F%2Ftracker.coppersurfer.tk%3A6969&amp;tr=udp%3A%2F%2Fexodus.desync.com%3A6969","seeders":0,"leechers":0,"uploader":"SFS27","files":5,"time":1435340638,"description":"Underdog Kids 2015 720p WEB-DL XviD AC3-RARBG\n\n\nScreens:\n &lt;a href=&quot;\nhttp://imgthat.com/img/img-558d2b1ec1f15.html&quot; rel=&quot;nofollow&quot; target=&quot;_NEW&quot;&gt;\nhttp://imgthat.com/img/img-558d2b1ec1f15.html&lt;/a&gt; &lt;a href=&quot;\nhttp://imgthat.com/img/img-558d2b1f17e06.html&quot; rel=&quot;nofollow&quot; target=&quot;_NEW&quot;&gt;\nhttp://imgthat.com/img/img-558d2b1f17e06.html&lt;/a&gt; &lt;a href=&quot;\nhttp://imgthat.com/img/img-558d2b1f4712c.html&quot; rel=&quot;nofollow&quot; target=&quot;_NEW&quot;&gt;\nhttp://imgthat.com/img/img-558d2b1f4712c.html&lt;/a&gt; &lt;a href=&quot;\nhttp://imgthat.com/img/img-558d2b1f63f97.html&quot; rel=&quot;nofollow&quot; target=&quot;_NEW&quot;&gt;\nhttp://imgthat.com/img/img-558d2b1f63f97.html&lt;/a&gt;\n\n\nFormat                                   : AVI\nFormat/Info                              : Audio Video Interleave\nFormat profile                           : OpenDML\nFile size                                : 2.76 GiB\nDuration                                 : 1h 34mn\nOverall bit rate                         : 4 193 Kbps\nMovie name                               : RARBG.COM - Underdog.Kids.2015.720p.WEB-DL.XviD.AC3-RARBG\nWriting library                          : VirtualDub build 35491/release\nComment                                  : RARBG.COM - Underdog.Kids.2015.720p.WEB-DL.XviD.AC3-RARBG\n\nVideo\nID                                       : 0\nFormat                                   : MPEG-4 Visual\nFormat profile                           : Simple@L5\nFormat settings, BVOP                    : No\nFormat settings, QPel                    : No\nFormat settings, GMC                     : No warppoints\nFormat settings, Matrix                  : Default (H.263)\nCodec ID                                 : XVID\nCodec ID/Hint                            : XviD\nDuration                                 : 1h 34mn\nBit rate                                 : 3 799 Kbps\nWidth                                    : 1 280 pixels\nHeight                                   : 716 pixels\nDisplay aspect ratio                     : 16:9\nFrame rate                               : 23.976 fps\nColor space                              : YUV\nChroma subsampling                       : 4:2:0\nBit depth                                : 8 bits\nScan type                                : Progressive\nCompression mode                         : Lossy\nBits/(Pixel*Frame)                       : 0.173\nStream size                              : 2.50 GiB (91%)\nWriting library                          : Lavc56.13.100\n\nAudio\nID                                       : 1\nFormat                                   : AC-3\nFormat/Info                              : Audio Coding 3\nMode extension                           : CM (complete main)\nFormat settings, Endianness              : Big\nCodec ID                                 : 2000\nDuration                                 : 1h 34mn\nBit rate mode                            : Constant\nBit rate                                 : 384 Kbps\nChannel(s)                               : 6 channels\nChannel positions                        : Front: L C R, Side: L R, LFE\nSampling rate                            : 48.0 KHz\nBit depth                                : 16 bits\nCompression mode                         : Lossy\nStream size                              : 259 MiB (9%)\nAlignment                                : Aligned on interleaves\nInterleave, duration                     : 42 ms (1.00 video frame)\nInterleave, preload duration             : 512 ms","torrent":{"xt":"urn:btih:f35fafb55a9f37b98b325c9332867fb8e5a3c153","amp;dn":"Underdog+Kids+2015+720p+WEB-DL+XviD+AC3-RARBG","amp;tr":["udp%3A%2F%2Ftracker.openbittorrent.com%3A80","udp%3A%2F%2Fopen.demonii.com%3A1337","udp%3A%2F%2Ftracker.coppersurfer.tk%3A6969","udp%3A%2F%2Fexodus.desync.com%3A6969"],"infoHash":"f35fafb55a9f37b98b325c9332867fb8e5a3c153","infoHashBuffer":{"type":"Buffer","data":[243,95,175,181,90,159,55,185,139,50,92,147,50,134,127,184,229,163,193,83]},"announce":[],"urlList":[]}}